<?xml version="1.0" encoding="UTF-8"?>
<!DOCTYPE svg PUBLIC "-//W3C//DTD SVG 1.1//EN" "http://www.w3.org/Graphics/SVG/1.1/DTD/svg11.dtd">
<!-- Creator: CorelDRAW -->
<svg xmlns="http://www.w3.org/2000/svg" xml:space="preserve" width="1920mm" height="1080mm" version="1.1" style="shape-rendering:geometricPrecision; text-rendering:geometricPrecision; image-rendering:optimizeQuality; fill-rule:evenodd; clip-rule:evenodd"
viewBox="0 0 107144.03 60268.52"
 xmlns:xlink="http://www.w3.org/1999/xlink"
 xmlns:xodm="http://www.corel.com/coreldraw/odm/2003">
 <defs>
  <style type="text/css">
   <![CDATA[
    .fil3 {fill:none}
    .fil0 {fill:#0057FF}
    .fil1 {fill:white}
    .fil2 {fill:white;fill-opacity:0.501961}
   ]]>
  </style>
   <clipPath id="id0">
    <path d="M-0 0l107144.03 0 0 60268.52 -107144.03 0 0 -60268.52z"/>
   </clipPath>
 </defs>
 <g id="Camada_x0020_1">
  <metadata id="CorelCorpID_0Corel-Layer"/>
  <polygon class="fil0" points="-0,0 107144.03,0 107144.03,60268.52 -0,60268.52 "/>
  <g style="clip-path:url(#id0)">
   <g id="_2614828417056">
    <path id="_1" class="fil1" d="M-23896.63 54279.86c4584.45,-9069.96 15562.93,-17653.95 26708.71,-17543.6 11145.77,110.35 22458.84,8915.05 34100.49,9520.81 11641.65,605.77 23611.86,-6987.41 35732.43,-6969.02 12120.57,18.39 24391.51,7648.35 37772.07,6218.89 13380.57,-1429.46 27870.78,-11918.35 38740.17,-13154.11 10869.39,-1235.77 18117.95,6781.59 20446.47,17605.67 2328.52,10824.08 -263.01,24454.88 -25886.43,32966.92 -25623.42,8512.04 -74278.74,11905.32 -106213.92,10974.9 -31935.18,-930.41 -47150.23,-6184.53 -55662.54,-13589.55 -8512.31,-7405.02 -10321.9,-16960.95 -5737.45,-26030.91z"/>
    <path class="fil2" d="M-54078.8 49119.82c5181.11,-8742.85 16709.41,-16572.95 27822.82,-15717 11113.41,855.95 21811.93,10397.96 33386.94,11781.39 11575.01,1383.44 24026.51,-5391.71 36118.69,-4562.28 12092.17,829.43 23825.03,9263.43 37271.26,8732.56 13446.23,-530.87 28605.85,-10026.59 39533.57,-10532.23 10927.72,-505.65 17623.54,7978.8 19222.51,18934.43 1598.99,10955.64 -1898.88,24382.47 -28034.47,31160.77 -26135.59,6778.31 -74908.92,6908.09 -106710.26,3842.74 -31801.34,-3065.35 -46630.69,-9325.84 -54628.4,-17283.89 -7997.71,-7958.04 -9163.78,-17613.65 -3982.67,-26356.49z"/>
   </g>
  </g>
  <polygon class="fil3" points="-0,0 107144.03,0 107144.03,60268.52 -0,60268.52 "/>
 </g>
</svg>
