<?xml version="1.0" encoding="UTF-8"?>
<!DOCTYPE svg PUBLIC "-//W3C//DTD SVG 1.1//EN" "http://www.w3.org/Graphics/SVG/1.1/DTD/svg11.dtd">
<!-- Creator: CorelDRAW -->
<svg xmlns="http://www.w3.org/2000/svg" xml:space="preserve" width="74.2376mm" height="57.1947mm" version="1.1" style="shape-rendering:geometricPrecision; text-rendering:geometricPrecision; image-rendering:optimizeQuality; fill-rule:evenodd; clip-rule:evenodd"
viewBox="0 0 230.39 177.5"
 xmlns:xlink="http://www.w3.org/1999/xlink"
 xmlns:xodm="http://www.corel.com/coreldraw/odm/2003">
 <defs>
  <style type="text/css">
   <![CDATA[
    .fil2 {fill:none}
    .fil1 {fill:#0057FF}
    .fil0 {fill:white}
   ]]>
  </style>
   <clipPath id="id0">
    <path d="M116.32 157.19c0,0 -5.72,8.99 -6.79,17.69 0,0 14.23,5.78 25.73,0.19 11.5,-5.59 13.15,-14.73 13.15,-14.73 0,0 23,-0.79 28.83,-3.23 0,0 -25.38,-54.84 8.31,-108.61 0,0 -27.04,45.89 0.59,105.71 0,0 36.85,-9.88 42.6,-37.68l-16.97 -6.52 18.31 -6.52c0,0 9.3,-79.16 -75.81,-79.38 0,0 -29.15,-46.9 -72.75,-9.89 0,0 8.87,14.96 24.33,23.83 0,0 -32.1,1.21 -46.8,39.99 0,0 -2.53,-54.75 -59.06,-44.36 0,0 -0.51,39.55 28.14,49.94 0,0 -12.42,9.63 -12.42,32.95 0,0 31.43,8.37 42.33,-23.07 0,0 0.92,48.48 58.27,63.67z"/>
   </clipPath>
 </defs>
 <g id="Camada_x0020_1">
  <metadata id="CorelCorpID_0Corel-Layer"/>
  <path class="fil0" d="M116.32 157.19c0,0 -5.72,8.99 -6.79,17.69 0,0 14.23,5.78 25.73,0.19 11.5,-5.59 13.15,-14.73 13.15,-14.73 0,0 23,-0.79 28.83,-3.23 0,0 -25.38,-54.84 8.31,-108.61 0,0 -27.04,45.89 0.59,105.71 0,0 36.85,-9.88 42.6,-37.68l-16.97 -6.52 18.31 -6.52c0,0 9.3,-79.16 -75.81,-79.38 0,0 -29.15,-46.9 -72.75,-9.89 0,0 8.87,14.96 24.33,23.83 0,0 -32.1,1.21 -46.8,39.99 0,0 -2.53,-54.75 -59.06,-44.36 0,0 -0.51,39.55 28.14,49.94 0,0 -12.42,9.63 -12.42,32.95 0,0 31.43,8.37 42.33,-23.07 0,0 0.92,48.48 58.27,63.67z"/>
  <g style="clip-path:url(#id0)">
   <g id="_2616072499232">
    <circle class="fil1" cx="206.78" cy="77.34" r="6.54"/>
   </g>
  </g>
  <path class="fil2" d="M116.32 157.19c0,0 -5.72,8.99 -6.79,17.69 0,0 14.23,5.78 25.73,0.19 11.5,-5.59 13.15,-14.73 13.15,-14.73 0,0 23,-0.79 28.83,-3.23 0,0 -25.38,-54.84 8.31,-108.61 0,0 -27.04,45.89 0.59,105.71 0,0 36.85,-9.88 42.6,-37.68l-16.97 -6.52 18.31 -6.52c0,0 9.3,-79.16 -75.81,-79.38 0,0 -29.15,-46.9 -72.75,-9.89 0,0 8.87,14.96 24.33,23.83 0,0 -32.1,1.21 -46.8,39.99 0,0 -2.53,-54.75 -59.06,-44.36 0,0 -0.51,39.55 28.14,49.94 0,0 -12.42,9.63 -12.42,32.95 0,0 31.43,8.37 42.33,-23.07 0,0 0.92,48.48 58.27,63.67z"/>
 </g>
</svg>
